CATALOG 0000000000000
FILE "Albert Odyssey - Legend of Eldean (USA) - [Japanese SFX Restoration and Undub v20250809 by KoolFiller] [Xhul hack v3 by Xhul] (Track 01).bin" BINARY
  TRACK 01 MODE1/2352
    INDEX 01 00:00:00
FILE "Albert Odyssey - Legend of Eldean (USA) - [Japanese SFX Restoration and Undub v20250809 by KoolFiller] [Xhul hack v3 by Xhul] (Track 02).bin" BINARY
  TRACK 02 AUDIO
    INDEX 00 00:00:00
    INDEX 01 00:02:00
FILE "Albert Odyssey - Legend of Eldean (USA) - [Japanese SFX Restoration and Undub v20250809 by KoolFiller] [Xhul hack v3 by Xhul] (Track 03).bin" BINARY
  TRACK 03 AUDIO
    INDEX 00 00:00:00
    INDEX 01 00:02:02
FILE "Albert Odyssey - Legend of Eldean (USA) - [Japanese SFX Restoration and Undub v20250809 by KoolFiller] [Xhul hack v3 by Xhul] (Track 04).bin" BINARY
  TRACK 04 AUDIO
    INDEX 00 00:00:00
    INDEX 01 00:02:02
FILE "Albert Odyssey - Legend of Eldean (USA) - [Japanese SFX Restoration and Undub v20250809 by KoolFiller] [Xhul hack v3 by Xhul] (Track 05).bin" BINARY
  TRACK 05 AUDIO
    INDEX 00 00:00:00
    INDEX 01 00:02:00
FILE "Albert Odyssey - Legend of Eldean (USA) - [Japanese SFX Restoration and Undub v20250809 by KoolFiller] [Xhul hack v3 by Xhul] (Track 06).bin" BINARY
  TRACK 06 AUDIO
    INDEX 00 00:00:00
    INDEX 01 00:02:02
FILE "Albert Odyssey - Legend of Eldean (USA) - [Japanese SFX Restoration and Undub v20250809 by KoolFiller] [Xhul hack v3 by Xhul] (Track 07).bin" BINARY
  TRACK 07 AUDIO
    INDEX 00 00:00:00
    INDEX 01 00:02:00
FILE "Albert Odyssey - Legend of Eldean (USA) - [Japanese SFX Restoration and Undub v20250809 by KoolFiller] [Xhul hack v3 by Xhul] (Track 08).bin" BINARY
  TRACK 08 AUDIO
    INDEX 00 00:00:00
    INDEX 01 00:02:00
FILE "Albert Odyssey - Legend of Eldean (USA) - [Japanese SFX Restoration and Undub v20250809 by KoolFiller] [Xhul hack v3 by Xhul] (Track 09).bin" BINARY
  TRACK 09 AUDIO
    INDEX 00 00:00:00
    INDEX 01 00:02:00
FILE "Albert Odyssey - Legend of Eldean (USA) - [Japanese SFX Restoration and Undub v20250809 by KoolFiller] [Xhul hack v3 by Xhul] (Track 10).bin" BINARY
  TRACK 10 AUDIO
    INDEX 00 00:00:00
    INDEX 01 00:02:02
FILE "Albert Odyssey - Legend of Eldean (USA) - [Japanese SFX Restoration and Undub v20250809 by KoolFiller] [Xhul hack v3 by Xhul] (Track 11).bin" BINARY
  TRACK 11 AUDIO
    INDEX 00 00:00:00
    INDEX 01 00:02:02
FILE "Albert Odyssey - Legend of Eldean (USA) - [Japanese SFX Restoration and Undub v20250809 by KoolFiller] [Xhul hack v3 by Xhul] (Track 12).bin" BINARY
  TRACK 12 AUDIO
    INDEX 00 00:00:00
    INDEX 01 00:02:00
FILE "Albert Odyssey - Legend of Eldean (USA) - [Japanese SFX Restoration and Undub v20250809 by KoolFiller] [Xhul hack v3 by Xhul] (Track 13).bin" BINARY
  TRACK 13 AUDIO
    INDEX 00 00:00:00
    INDEX 01 00:02:02
FILE "Albert Odyssey - Legend of Eldean (USA) - [Japanese SFX Restoration and Undub v20250809 by KoolFiller] [Xhul hack v3 by Xhul] (Track 14).bin" BINARY
  TRACK 14 AUDIO
    INDEX 00 00:00:00
    INDEX 01 00:02:00
FILE "Albert Odyssey - Legend of Eldean (USA) - [Japanese SFX Restoration and Undub v20250809 by KoolFiller] [Xhul hack v3 by Xhul] (Track 15).bin" BINARY
  TRACK 15 AUDIO
    INDEX 00 00:00:00
    INDEX 01 00:02:02
FILE "Albert Odyssey - Legend of Eldean (USA) - [Japanese SFX Restoration and Undub v20250809 by KoolFiller] [Xhul hack v3 by Xhul] (Track 16).bin" BINARY
  TRACK 16 AUDIO
    INDEX 00 00:00:00
    INDEX 01 00:02:00
FILE "Albert Odyssey - Legend of Eldean (USA) - [Japanese SFX Restoration and Undub v20250809 by KoolFiller] [Xhul hack v3 by Xhul] (Track 17).bin" BINARY
  TRACK 17 AUDIO
    INDEX 00 00:00:00
    INDEX 01 00:02:00
FILE "Albert Odyssey - Legend of Eldean (USA) - [Japanese SFX Restoration and Undub v20250809 by KoolFiller] [Xhul hack v3 by Xhul] (Track 18).bin" BINARY
  TRACK 18 AUDIO
    INDEX 00 00:00:00
    INDEX 01 00:02:00
FILE "Albert Odyssey - Legend of Eldean (USA) - [Japanese SFX Restoration and Undub v20250809 by KoolFiller] [Xhul hack v3 by Xhul] (Track 19).bin" BINARY
  TRACK 19 AUDIO
    INDEX 00 00:00:00
    INDEX 01 00:02:00
FILE "Albert Odyssey - Legend of Eldean (USA) - [Japanese SFX Restoration and Undub v20250809 by KoolFiller] [Xhul hack v3 by Xhul] (Track 20).bin" BINARY
  TRACK 20 AUDIO
    INDEX 00 00:00:00
    INDEX 01 00:02:00
FILE "Albert Odyssey - Legend of Eldean (USA) - [Japanese SFX Restoration and Undub v20250809 by KoolFiller] [Xhul hack v3 by Xhul] (Track 21).bin" BINARY
  TRACK 21 AUDIO
    INDEX 00 00:00:00
    INDEX 01 00:02:00
FILE "Albert Odyssey - Legend of Eldean (USA) - [Japanese SFX Restoration and Undub v20250809 by KoolFiller] [Xhul hack v3 by Xhul] (Track 22).bin" BINARY
  TRACK 22 AUDIO
    INDEX 00 00:00:00
    INDEX 01 00:02:00
